<svg width="199" height="65" viewBox="0 0 199 65" fill="none" xmlns="http://www.w3.org/2000/svg">
<g clip-path="url(#clip0_1_242)">
<g clip-path="url(#clip1_1_242)">
<g clip-path="url(#clip2_1_242)">
<path d="M64.7055 29.7701V31.941C64.7055 32.1502 64.6134 32.2464 64.4252 32.2464H58.1925V35.2542H62.3462C62.5596 35.2542 62.6515 35.3503 62.6515 35.5343V37.7513C62.6515 37.9396 62.5596 38.0108 62.3462 38.0108H58.1925V41.0434H64.4001V41.0894C64.4804 41.0916 64.5569 41.1244 64.6137 41.1812C64.6705 41.2381 64.7033 41.3145 64.7055 41.3948V43.5615C64.7044 43.6422 64.6719 43.7192 64.6149 43.7762C64.5578 43.8333 64.4808 43.8658 64.4001 43.8669H55.348C55.2711 43.8614 55.1992 43.8267 55.1471 43.77C55.095 43.7132 55.0666 43.6386 55.0677 43.5615V29.7575C55.0675 29.6811 55.0964 29.6075 55.1484 29.5515C55.2005 29.4956 55.2718 29.4616 55.348 29.4563H64.4252C64.6134 29.4689 64.7055 29.5484 64.7055 29.7701ZM80.0362 41.0892V41.0642H74.0628V29.7951C74.0628 29.5608 73.9707 29.4689 73.7825 29.4689H71.2393C71.0511 29.4689 70.959 29.5608 70.959 29.7951V43.5613C70.9588 43.6381 70.9876 43.7122 71.0395 43.7688C71.0914 43.8254 71.1628 43.8603 71.2393 43.8667H80.0236C80.2118 43.8667 80.3039 43.7748 80.3039 43.5613V41.3946C80.3163 41.1813 80.2244 41.0892 80.0362 41.0892ZM95.7224 29.4689H86.6411C86.5653 29.4752 86.4945 29.5096 86.4427 29.5653C86.3908 29.621 86.3616 29.694 86.3608 29.7701V43.5739C86.3607 43.6507 86.3895 43.7247 86.4414 43.7813C86.4933 43.8378 86.5646 43.8728 86.6411 43.8793H95.6972C95.7779 43.8783 95.855 43.8457 95.912 43.7887C95.969 43.7317 96.0015 43.6546 96.0026 43.5739V41.3946C96.0006 41.3142 95.9678 41.2377 95.9109 41.1809C95.8541 41.1241 95.7776 41.0912 95.6972 41.0892V41.0432H89.4898V38.0106H93.6434C93.8527 38.0106 93.9488 37.9394 93.9488 37.7512V35.5342C93.9488 35.3502 93.8527 35.254 93.6434 35.254H89.4898V32.2464H95.7224C95.9065 32.2464 96.0026 32.1502 96.0026 31.941V29.7701C96.0026 29.5482 95.9065 29.4689 95.7224 29.4689ZM112.546 39.4077C112.362 39.2697 112.22 39.2906 112.103 39.4329C111.709 40.0119 111.176 40.4828 110.552 40.8021C109.929 41.1215 109.235 41.2792 108.535 41.2608C107.968 41.2789 107.404 41.1712 106.883 40.9456C106.362 40.72 105.898 40.3819 105.523 39.9557C104.741 39.0684 104.324 37.9174 104.356 36.7348C104.332 35.5491 104.758 34.3983 105.548 33.5138C105.92 33.0909 106.381 32.7545 106.897 32.5284C107.413 32.3022 107.972 32.1917 108.535 32.2047C109.19 32.208 109.834 32.3663 110.416 32.6665C110.997 32.9668 111.5 33.4006 111.881 33.9323C112.024 34.1205 112.162 34.1413 112.325 33.9782L113.998 32.305C114.055 32.2452 114.086 32.1658 114.086 32.0833C114.086 32.0007 114.055 31.9213 113.998 31.8615C113.324 31.0668 112.483 30.4301 111.535 29.9964C110.588 29.5627 109.556 29.3426 108.514 29.3518C107.548 29.3359 106.588 29.5207 105.697 29.8944C104.806 30.268 104.002 30.8225 103.336 31.5227C102.643 32.1993 102.096 33.0094 101.726 33.9039C101.357 34.7984 101.173 35.7586 101.185 36.7264C101.172 37.6942 101.356 38.6546 101.726 39.5492C102.095 40.4437 102.643 41.2538 103.336 41.93C103.997 42.631 104.802 43.1808 105.696 43.5418C106.59 43.9028 107.551 44.0664 108.514 44.0215C109.586 44.0199 110.645 43.7804 111.613 43.3204C112.582 42.8604 113.436 42.1912 114.115 41.3612C114.148 41.3344 114.175 41.3007 114.193 41.2623C114.212 41.224 114.221 41.182 114.221 41.1395C114.221 41.097 114.212 41.055 114.193 41.0166C114.175 40.9783 114.148 40.9445 114.115 40.9178L112.546 39.4077ZM130.45 29.4689H119.829C119.755 29.4792 119.686 29.5148 119.635 29.5696C119.584 29.6245 119.554 29.6953 119.549 29.7701V31.9662C119.55 32.0423 119.579 32.1154 119.631 32.1711C119.682 32.2268 119.753 32.2612 119.829 32.2674H123.594V43.5613C123.594 43.7706 123.665 43.8627 123.853 43.8627H126.409C126.489 43.8615 126.564 43.8294 126.621 43.7733C126.677 43.717 126.709 43.641 126.71 43.5613V32.2674H130.475C130.659 32.2674 130.755 32.1711 130.755 31.962V29.7701C130.757 29.7297 130.75 29.6893 130.736 29.6517C130.721 29.614 130.698 29.5799 130.669 29.5516C130.641 29.5232 130.606 29.5011 130.568 29.4869C130.53 29.4726 130.49 29.4665 130.45 29.4689ZM147.767 43.5405C147.785 43.5758 147.793 43.6151 147.79 43.6544C147.788 43.6938 147.776 43.7318 147.754 43.7649C147.733 43.7978 147.703 43.8245 147.668 43.8423C147.633 43.8602 147.593 43.8686 147.554 43.8667H144.965C144.876 43.8618 144.791 43.8332 144.717 43.7839C144.644 43.7346 144.585 43.6664 144.546 43.5865L142.187 39.1986H139.832V43.5865C139.831 43.6605 139.801 43.731 139.749 43.7833C139.696 43.8355 139.626 43.8654 139.552 43.8667H137.005C136.931 43.8656 136.861 43.8356 136.809 43.7832C136.757 43.7308 136.728 43.6601 136.728 43.5865V29.7825C136.728 29.5734 136.82 29.4815 137.005 29.4815H143.915C144.433 29.4855 144.944 29.6064 145.409 29.8352C145.874 30.0641 146.281 30.395 146.6 30.8033C147.356 31.7992 147.736 33.0306 147.671 34.2793C147.671 36.6385 146.646 38.3661 145.22 38.7844L147.767 43.5405ZM144.521 34.3378C144.521 32.9618 143.961 32.2842 142.848 32.2842H139.815V36.4168H142.823C143.977 36.4 144.521 35.6974 144.521 34.3212V34.338V34.3378ZM166.147 43.8667H163.537C163.441 43.8667 163.324 43.7748 163.232 43.5613L162.487 41.7668H156.472L155.69 43.5613C155.594 43.7748 155.502 43.8667 155.41 43.8667H152.762C152.725 43.8682 152.688 43.8603 152.655 43.8438C152.622 43.8273 152.593 43.8027 152.572 43.7722C152.551 43.7418 152.538 43.7066 152.533 43.6697C152.529 43.6329 152.535 43.5957 152.548 43.5613L158.547 29.5818C158.618 29.3978 158.71 29.3057 158.827 29.3057H160.082C160.199 29.3057 160.316 29.3978 160.362 29.5818L166.365 43.5613C166.385 43.6137 166.384 43.6714 166.364 43.7235C166.343 43.7755 166.304 43.8181 166.254 43.8432C166.221 43.8596 166.185 43.8677 166.147 43.8667ZM161.249 39.0144L159.576 35.0909L159.434 34.7897L159.317 35.0909L157.643 39.0144H161.249ZM44.4932 41.4156H34.9727C34.777 41.4229 34.5921 41.5071 34.4581 41.6499L32.7849 43.4945C32.7612 43.519 32.7432 43.5483 32.732 43.5806C32.7208 43.6128 32.7168 43.647 32.7202 43.6809C32.7235 43.7148 32.7343 43.7476 32.7516 43.777C32.769 43.8063 32.7925 43.8316 32.8206 43.8509C32.8582 43.8766 32.9025 43.8909 32.9481 43.8919H42.4852C42.5828 43.8924 42.6793 43.8717 42.7682 43.8312C42.857 43.7908 42.9359 43.7316 42.9997 43.6576L44.673 41.8129C44.7084 41.7801 44.7325 41.7371 44.742 41.6898C44.7515 41.6425 44.7459 41.5934 44.7259 41.5495C44.706 41.5057 44.6728 41.4692 44.6311 41.4451C44.5893 41.4211 44.5411 41.4108 44.4932 41.4156ZM45.1249 29.4689H40.8748L41.7409 24.5664C41.7534 24.4915 41.7416 24.4147 41.7072 24.347C41.6729 24.2793 41.6178 24.2244 41.55 24.1903C41.4822 24.1562 41.4053 24.1447 41.3305 24.1574C41.2557 24.1701 41.1869 24.2064 41.1342 24.261L33.7348 32.4764C33.6424 32.5758 33.5812 32.7 33.5586 32.8338C33.5361 32.9676 33.5532 33.105 33.6079 33.2292C33.6626 33.3533 33.7525 33.4587 33.8664 33.5324C33.9804 33.606 34.1134 33.6447 34.249 33.6436H38.3568L37.3112 39.5877C37.3063 39.6137 37.3104 39.6405 37.3228 39.6639C37.3352 39.6873 37.3551 39.7058 37.3793 39.7164C37.4035 39.7271 37.4306 39.7292 37.4562 39.7225C37.4817 39.7159 37.5043 39.7007 37.5202 39.6796L45.6395 30.6359C45.7319 30.5365 45.7931 30.4123 45.8157 30.2785C45.8382 30.1447 45.8211 30.0072 45.7663 29.8831C45.7116 29.7589 45.6217 29.6535 45.5077 29.5799C45.3938 29.5063 45.2606 29.4677 45.1249 29.4689Z" fill="#0F172A"/>
</g>
</g>
</g>
<defs>
<clipPath id="clip0_1_242">
<rect width="133.94" height="20" fill="white" transform="translate(32.7092 24.1099)"/>
</clipPath>
<clipPath id="clip1_1_242">
<rect width="133.94" height="20" fill="white" transform="translate(32.7092 24.1099)"/>
</clipPath>
<clipPath id="clip2_1_242">
<rect width="133.94" height="19.9986" fill="white" transform="translate(32.7092 24.1106)"/>
</clipPath>
</defs>
</svg>
